<svg xmlns="http://www.w3.org/2000/svg" xmlns:xlink="http://www.w3.org/1999/xlink" xml:space="preserve" width="623.9" height="695.41" viewBox="0 0 623.904 695.413"><defs><clipPath id="a" clipPathUnits="userSpaceOnUse"><path d="M0 768h1024V0H0z"/></clipPath><clipPath id="b" clipPathUnits="userSpaceOnUse"><path d="M452.11 527.55h100.54v-78.546H452.11z"/></clipPath><clipPath id="c" clipPathUnits="userSpaceOnUse"><path d="M452.11 449.5c1.03-.434 2.659-.496 5.248-.496h1.207c4.395 0 8.619.191 12.735.161 3.93-.026 7.759.08 11.54.08 4.749 0 9.405-.092 14.069.04 27.627.783 51.295 21.328 55.049 47.765 1.544 10.87.459 21.248-2.787 30.424a94 94 0 0 1-3.695.076c-46.65 0-85.434-33.681-93.366-78.05"/></clipPath><clipPath id="e" clipPathUnits="userSpaceOnUse"><path d="M354.6 660.97h236.41V504.92H354.6z"/></clipPath><clipPath id="f" clipPathUnits="userSpaceOnUse"><path d="M519.05 658.15c-27.149 2.459-54.151 2.773-74.645 2.773-10.913 0-21.83.102-32.756 0-15.448-.146-34.47 0-50.162 0-6.841 0-6.884-.088-6.884-7.03l.008-124.29a152.6 152.6 0 0 1 64.95-24.689c-.002 23.346-.072 66.432-.072 83.293 0 6.946.018 7.012 7.279 7.012 11.544 0 32.905-.03 32.905-.03 14.263 0 29.434-.313 44.256-1.401 23.466-1.725 44.122-12.906 58.483-29.637 14.119 18.555 24.107 40.421 28.597 64.232-20.609 16.557-45.337 27.361-71.959 29.766"/></clipPath><clipPath id="h" clipPathUnits="userSpaceOnUse"><path d="M451.8 421.49h96.093v-68.754H451.8z"/></clipPath><clipPath id="i" clipPathUnits="userSpaceOnUse"><path d="M522.77 414.76c-.221.442-.429.867-.628 1.264-3.069 5.979-3.007 6.032-9.117 4.886-.439-.084-.867-.159-1.3-.239a89 89 0 0 0-8.928-1.15c-4.669-.358-9.692-1.219-15.803-1.219-4.562 0-9.156-.089-13.795 0-4.838.097-12.008 0-16.009 0-2.771 0-4.407-.021-5.385-.524 4.313-27.304 20.274-50.736 42.638-65.042 9.34.365 17.946.961 23.163 1.935 7.269 1.352 14.812 2.387 22.213 4.54 0 0 2.025.561 2.689.783 6.451 2.175 6.451 2.268 3.448 8.533-5.584 11.678-17.735 35.408-23.186 46.233"/></clipPath><clipPath id="k" clipPathUnits="userSpaceOnUse"><path d="M357.32 660.97h292.02V432.59H357.32z"/></clipPath><clipPath id="l" clipPathUnits="userSpaceOnUse"><path d="M519.05 658.15c-27.149 2.459-54.151 2.773-74.645 2.773-10.913 0-21.83.102-32.756 0-15.448-.146-34.47 0-50.162 0-1.978 0-3.167-.008-4.172-.187.05-60.7 23.68-115.85 62.68-156.72v.098c0 23.169-.291 67.023-.291 84.059 0 6.946-.092 7.028 7.169 7.028 11.545 0 32.851-.021 32.851-.021 14.263 0 29.407-.309 44.228-1.397 45.237-3.325 80.079-41.74 79.35-87.454-.403-25.434-11.221-49.208-29.73-65.533-.322-.287-.653-.566-.984-.849-.142-.119-.29-.238-.436-.366-2.119-1.859-3.343-2.935-3.815-3.996a230 230 0 0 1 37.117-3.003c16.189 0 31.984 1.688 47.223 4.892 10.616 20.89 16.474 44.042 16.652 67.697.588 77.802-57.866 146.43-130.28 152.98"/></clipPath><clipPath id="n" clipPathUnits="userSpaceOnUse"><path d="M334.42 224.67h68.578V212H334.42z"/></clipPath><clipPath id="o" clipPathUnits="userSpaceOnUse"><path d="M403 224.67c-56 0-68.58-12.67-68.58-12.67h68.578v12.67z"/></clipPath><clipPath id="q" clipPathUnits="userSpaceOnUse"><path d="M480.26 224.67H617V212H480.26z"/></clipPath><clipPath id="r" clipPathUnits="userSpaceOnUse"><path d="M617 224.67c-129 0-136.74-12.67-136.74-12.67H617z"/></clipPath><clipPath id="t" clipPathUnits="userSpaceOnUse"><path d="M647.33 224.67H749V212H647.33z"/></clipPath><clipPath id="u" clipPathUnits="userSpaceOnUse"><path d="M749 224.67c-97 0-101.67-12.67-101.67-12.67H749z"/></clipPath><linearGradient id="d" gradientTransform="matrix(100.54 0 0 -100.54 452.11 488.27)" gradientUnits="userSpaceOnUse"><stop offset="0"/><stop offset=".884" stop-color="#fff"/><stop offset="1" stop-color="#fff"/></linearGradient><linearGradient id="g" gradientTransform="matrix(236.41 0 0 -236.41 354.6 582.95)" gradientUnits="userSpaceOnUse"><stop offset="0" stop-color="#8cd7dd"/><stop offset=".116" stop-color="#8cd7dd"/><stop offset="1" stop-color="#fff"/></linearGradient><linearGradient id="j" gradientTransform="matrix(96.093 0 0 -96.093 451.8 387.12)" gradientUnits="userSpaceOnUse"><stop offset="0"/><stop offset=".884" stop-color="#fff"/><stop offset="1" stop-color="#fff"/></linearGradient><linearGradient id="m" gradientTransform="matrix(292.02 0 0 -292.02 357.32 546.78)" gradientUnits="userSpaceOnUse"><stop offset="0" stop-color="#8cd7dd"/><stop offset=".116" stop-color="#8cd7dd"/><stop offset="1" stop-color="#fff"/></linearGradient><linearGradient id="p" gradientTransform="matrix(68.578 0 0 -68.578 334.42 218.33)" gradientUnits="userSpaceOnUse"><stop offset="0"/><stop offset=".884" stop-color="#fff"/><stop offset="1" stop-color="#fff"/></linearGradient><linearGradient id="s" gradientTransform="matrix(136.74 0 0 -136.74 480.26 218.33)" gradientUnits="userSpaceOnUse"><stop offset="0"/><stop offset=".884" stop-color="#fff"/><stop offset="1" stop-color="#fff"/></linearGradient><linearGradient id="v" gradientTransform="matrix(101.67 0 0 -101.67 647.33 218.33)" gradientUnits="userSpaceOnUse"><stop offset="0"/><stop offset=".884" stop-color="#fff"/><stop offset="1" stop-color="#fff"/></linearGradient></defs><g clip-path="url(#a)" transform="matrix(1.25 0 0 -1.25 -317.77 826.21)"><path fill="#b4bdc0" d="M457.36 449h1.207c4.395 0 8.618.191 12.734.161 3.931-.026 7.76.08 11.54.08 4.749 0 9.406-.093 14.07.04 27.627.783 51.295 21.328 55.049 47.765 4.426 31.163-12.695 58.317-40.709 64.548-11.996 2.666-24.408 2.777-36.412 2.896-5.262.054-17.131-.006-17.848-.006-6.765 0-6.992-.121-6.992-6.948v-101.12c0-6.995.42-7.41 7.361-7.41"/><g clip-path="url(#b)" opacity=".1"><g clip-path="url(#c)"><path fill="url(#d)" d="M452.11 449.5c1.03-.434 2.659-.496 5.248-.496h1.207c4.395 0 8.619.191 12.735.161 3.93-.026 7.759.08 11.54.08 4.749 0 9.405-.092 14.069.04 27.627.783 51.295 21.328 55.049 47.765 1.544 10.87.459 21.248-2.787 30.424a94 94 0 0 1-3.695.076c-46.65 0-85.434-33.681-93.366-78.05"/></g></g><path fill="#01a799" d="M519.05 658.15c-27.149 2.459-54.151 2.772-74.646 2.772-10.913 0-21.829.103-32.754 0-15.45-.145-34.472 0-50.163 0-6.841 0-6.885-.087-6.885-7.03 0-15.621.013-160.56.013-196.64 0-7.172.075-7.251 7.07-7.251h50.848c6.973 0 7.018.065 7.018 7.065 0 11.743.009 47.019.009 47.019 0 23.169-.072 67.04-.072 84.076 0 6.946.018 7.037 7.279 7.037 11.545 0 32.905-.017 32.905-.017 14.264 0 29.435-.307 44.256-1.394 45.237-3.325 80.093-41.739 79.363-87.453-.402-25.434-11.213-49.208-29.722-65.533-.323-.287-.65-.566-.982-.848-.141-.119-.287-.238-.433-.366-5.027-4.41-5.027-4.41-1.861-10.273.114-.212.433-.866.433-.866l22.722-45.285s.35-.753.496-.987c3.683-5.973 3.771-5.88 9.113-2.065.301.217 1.202.88 1.202.88l.686.504c39.958 29.107 64.024 75.348 64.387 123.68.57 77.794-57.884 146.43-130.3 152.97"/><path fill="#01a698" d="M420.23 354.59c0-1.217-.971-2.201-2.171-2.201h-61.84c-1.197 0-2.171.984-2.171 2.201v62.221c0 1.217.974 2.203 2.171 2.203h61.84c1.2 0 2.171-.986 2.171-2.203z"/><path fill="#b4bdc0" d="M522.77 414.76q-.33.665-.628 1.265c-3.068 5.978-3.007 6.031-9.117 4.885-.438-.084-.866-.159-1.3-.239a89 89 0 0 0-8.928-1.149c-4.669-.359-9.692-1.22-15.802-1.22-4.563 0-9.158-.089-13.795 0-4.838.098-12.186 0-16.188 0-6.707 0-7.008-.071-7.008-7.013v-52.038c0-7.039.177-7.088 7.079-7.088 14.441 0 47.652.124 60.435 2.508 7.269 1.353 14.856 2.387 22.258 4.54 0 0 2.047.562 2.71.783 6.451 2.175 6.462 2.268 3.46 8.534-5.585 11.677-17.725 35.408-23.176 46.232"/><g clip-path="url(#e)" opacity=".15"><g clip-path="url(#f)"><path fill="url(#g)" d="M519.05 658.15c-27.149 2.459-54.151 2.773-74.645 2.773-10.913 0-21.83.102-32.756 0-15.448-.146-34.47 0-50.162 0-6.841 0-6.884-.088-6.884-7.03l.008-124.29a152.6 152.6 0 0 1 64.95-24.689c-.002 23.346-.072 66.432-.072 83.293 0 6.946.018 7.012 7.279 7.012 11.544 0 32.905-.03 32.905-.03 14.263 0 29.434-.313 44.256-1.401 23.466-1.725 44.122-12.906 58.483-29.637 14.119 18.555 24.107 40.421 28.597 64.232-20.609 16.557-45.337 27.361-71.959 29.766"/></g></g><g clip-path="url(#h)" opacity=".1"><g clip-path="url(#i)"><path fill="url(#j)" d="M522.77 414.76c-.221.442-.429.867-.628 1.264-3.069 5.979-3.007 6.032-9.117 4.886-.439-.084-.867-.159-1.3-.239a89 89 0 0 0-8.928-1.15c-4.669-.358-9.692-1.219-15.803-1.219-4.562 0-9.156-.089-13.795 0-4.838.097-12.008 0-16.009 0-2.771 0-4.407-.021-5.385-.524 4.313-27.304 20.274-50.736 42.638-65.042 9.34.365 17.946.961 23.163 1.935 7.269 1.352 14.812 2.387 22.213 4.54 0 0 2.025.561 2.689.783 6.451 2.175 6.451 2.268 3.448 8.533-5.584 11.678-17.735 35.408-23.186 46.233"/></g></g><g clip-path="url(#k)" opacity=".15"><g clip-path="url(#l)"><path fill="url(#m)" d="M519.05 658.15c-27.149 2.459-54.151 2.773-74.645 2.773-10.913 0-21.83.102-32.756 0-15.448-.146-34.47 0-50.162 0-1.978 0-3.167-.008-4.172-.187.05-60.7 23.68-115.85 62.68-156.72v.098c0 23.169-.291 67.023-.291 84.059 0 6.946-.092 7.028 7.169 7.028 11.545 0 32.851-.021 32.851-.021 14.263 0 29.407-.309 44.228-1.397 45.237-3.325 80.079-41.74 79.35-87.454-.403-25.434-11.221-49.208-29.73-65.533-.322-.287-.653-.566-.984-.849-.142-.119-.29-.238-.436-.366-2.119-1.859-3.343-2.935-3.815-3.996a230 230 0 0 1 37.117-3.003c16.189 0 31.984 1.688 47.223 4.892 10.616 20.89 16.474 44.042 16.652 67.697.588 77.802-57.866 146.43-130.28 152.98"/></g></g><path fill="#b4bdc0" d="M390.66 149.64c3.815 0 7.099-2.929 7.099-6.745s-3.195-6.922-7.099-6.922c-3.728 0-7.1 2.929-7.1 6.745s3.195 6.922 7.1 6.922"/><path fill="#24b3a7" d="M305.36 293.56c-3.81 4.952-10.095 7.714-16.285 7.714-15.143 0-25.143-12.095-25.143-27.428 0-14.19 9.429-26.285 25.143-26.285 7.714 0 13.618 3.429 17.618 9.048l7.714-5.81c-2-2.761-10.095-11.809-25.524-11.809-21.427 0-34.665 17.904-34.665 34.856 0 20.951 14.381 35.998 35.142 35.998 8.857 0 18.19-3.333 23.619-10.475zM346.78 285.85h8.571v-45.141h-8.571zm7.905 22.285h12.19l-14.19-13.714h-7.905zM368.97 285.85h8.571v-6.952h.191c2.19 4.762 7.904 8.096 14.856 8.096 8.762 0 16.381-5.239 16.381-17.238v-29.047h-8.572v26.666c0 8.476-4.857 11.619-10.285 11.619-7.143 0-12.571-4.572-12.571-15.047v-23.238h-8.571zM422.59 285.85h8.571v-45.141h-8.571zm4.285 22.475c3.429 0 6.285-2.857 6.285-6.285s-2.856-6.286-6.285-6.286c-3.428 0-6.285 2.857-6.285 6.286s2.857 6.285 6.285 6.285M477.06 273.85c-3.143 3.333-6.476 5.047-11.237 5.047-9.333 0-14.096-7.524-14.096-15.999s5.715-15.333 14.571-15.333c4.762 0 8.095 1.715 10.952 5.048l6.096-6.095c-4.476-4.953-10.571-6.953-17.142-6.953-13.905 0-23.619 9.619-23.619 23.523s9.524 23.809 23.619 23.809c6.571 0 12.856-2.285 17.332-7.143zM515.06 262.42c-8.096 0-17.999-1.43-17.999-8.667 0-5.143 3.809-7.333 9.714-7.333 9.523 0 12.856 7.047 12.856 13.143v2.857zm-24.189 17.903c4.761 4.476 11.618 6.667 17.903 6.667 13.333 0 18.856-7.238 18.856-15.048v-23.046c0-3.143.096-5.809.382-8.19h-7.619a83 83 0 0 0-.286 6.857h-.19c-3.81-5.809-8.953-8-15.809-8-8.381 0-15.618 4.761-15.618 13.523 0 11.619 11.142 15.619 24.855 15.619h6.286v1.904c0 4.667-3.428 9.524-10.761 9.524-6.572 0-9.714-2.762-12.857-5.143zM568.78 308.13h42.379v-8.571h-33.237v-21.142h30.952v-8.571h-30.952v-29.142h-9.142zM643.15 308.13h12.189l-14.189-13.714h-7.904zm2.477-45.712c-8.096 0-18-1.43-18-8.667 0-5.142 3.809-7.333 9.713-7.333 9.524 0 12.857 7.047 12.857 13.143v2.857zm-24.191 17.903c4.762 4.476 11.618 6.667 17.904 6.667 13.333 0 18.857-7.238 18.857-15.047v-23.047c0-3.143.096-5.809.381-8.19h-7.619a82 82 0 0 0-.286 6.857h-.19c-3.81-5.809-8.952-8-15.81-8-8.379 0-15.618 4.761-15.618 13.523 0 11.619 11.143 15.619 24.857 15.619h6.285v1.905c0 4.667-3.428 9.523-10.762 9.523-6.57 0-9.713-2.762-12.856-5.143zM702.96 273.85c-3.144 3.333-6.477 5.047-11.238 5.047-9.333 0-14.095-7.524-14.095-15.999s5.714-15.333 14.571-15.333c4.762 0 8.095 1.715 10.951 5.048l6.096-6.095c-4.476-4.953-10.571-6.953-17.142-6.953-13.905 0-23.619 9.619-23.619 23.523s9.525 23.809 23.619 23.809c6.571 0 12.856-2.285 17.333-7.143zM717.25 285.85h8.57v-45.141h-8.57zm4.285 22.475c3.429 0 6.285-2.857 6.285-6.285s-2.856-6.286-6.285-6.286-6.285 2.857-6.285 6.286 2.856 6.285 6.285 6.285M284.4 148.14c16.664 0 35.378 6.814 35.378 31.297 0 26.021-18.714 31.553-35.378 31.553h-13.586v-62.85zm-29.59 76.816h32.153c23.714 0 50.12-11.295 50.12-45.39 0-31.79-26.406-45.392-50.12-45.392H254.81zM349.38 195.57h14.839v-10.185h.171c3.333 6.984 9.864 12.081 17.94 12.081 1.154 0 2.839-.096 3.712-.353v-14.1c-2.037.513-3.313.641-4.724.641-13.843 0-16.517-12.05-16.517-16.536v-32.943H349.38zM439.78 185.97c9.102 0 19.484 2.082 19.484 13.106 0 9.871-9.742 12.208-18.074 12.208h-14.704V185.97zm-29.298 38.99h31.478c17.048 0 33.455-6.807 33.455-26.035 0-13.075-8.075-21.671-20.766-24.49l24.227-40.257h-19.484l-21.022 38.408h-11.884v-38.408h-16.004z"/><path fill="#b4bdc0" d="M319.3 225c2.104-1 4.093-2.496 5.95-3.871 3.535-2.62 6.6-6.129 9.176-9.129h68.578v13z"/><path fill="#24b3a7" d="M516.05 145.2c12.178 0 17.817 10.383 17.817 19.996 0 9.614-5.639 19.74-17.817 19.74-12.177 0-17.817-10.126-17.817-19.74s5.64-19.996 17.817-19.996m0 52.299c18.587 0 33.456-12.946 33.456-32.303 0-19.355-14.869-32.814-33.456-32.814-18.586 0-33.455 13.459-33.455 32.814 0 19.357 14.869 32.303 33.455 32.303M603.85 178.66c-2.435 3.461-7.69 6.024-12.689 6.024-11.281 0-16.92-10.127-16.92-19.74 0-9.614 5.767-19.74 17.432-19.74 4.743 0 9.998 1.923 12.947 5.512l9.614-9.742c-5.128-5.512-13.588-8.588-22.689-8.588-18.202 0-33.328 12.049-33.328 32.558 0 19.996 14.869 32.559 32.944 32.559 8.972 0 18.33-3.589 23.201-9.614zM734.62 162.11h-3.485c-9.742 0-23.457-1.084-23.457-10.185 0-5.896 5.523-7.656 10.779-7.656 10.512 0 16.163 6.06 16.163 15.801zm.291-20.076h-.443c-3.076-5.529-10.383-9.376-19.099-9.376-9.87 0-23.062 4.733-23.062 19.09 0 18.33 23.109 20.884 42.313 20.884v1.539c0 7.562-6.421 11.279-14.112 11.279-6.537 0-12.825-3.076-16.798-7.05l-7.95 9.357c6.922 6.41 16.641 9.743 25.999 9.743 22.048 0 27.409-13.588 27.409-25.894v-37.429h-14.257zM658.45 197.44c-9.101 0-15.758-5.441-18.193-10.441h-.254v38h-15v-91h15v33.762c0 8.203 4.796 16.535 14.538 16.535 9.87 0 11.462-8.972 11.462-16.279v-34.018h15v38.633c0 12.562-6.53 24.808-22.553 24.808"/><path fill="#b4bdc0" d="M618 224H469.91c4.695-2 8.203-7 10.343-12h137.75v12zM647 212h103v12H647z"/><g clip-path="url(#n)" opacity=".1"><g clip-path="url(#o)"><path fill="url(#p)" d="M403 224.67c-56 0-68.58-12.67-68.58-12.67h68.578v12.67z"/></g></g><g clip-path="url(#q)" opacity=".1"><g clip-path="url(#r)"><path fill="url(#s)" d="M617 224.67c-129 0-136.74-12.67-136.74-12.67H617z"/></g></g><g clip-path="url(#t)" opacity=".1"><g clip-path="url(#u)"><path fill="url(#v)" d="M749 224.67c-97 0-101.67-12.67-101.67-12.67H749z"/></g></g><path fill="#24b3a7" d="M324 241h9v67h-9zM740 241h9v67h-9z"/></g><text fill="#b4bdc0" font-family="'AvenirNext LT Pro Regular'" font-size="18.8" font-style="italic" transform="translate(.73 695.072)scale(1.25)"><tspan x="0 16.694 27.636 41.774 52.414 57.152 67.793 80.896 95.034 107.797 112.535 117.461 131.598 136.336 149.684 165.401 176.699 187.641 203.358 214.657 225.598 230.336 240.977 254.08 268.218" y="0">MENS SANA IN CORPORE SANO</tspan></text><text fill="#b4bdc0" font-family="'AvenirNext LT Pro Regular'" font-size="18.8" font-weight="600" transform="translate(361.568 695.072)scale(1.25)"><tspan x="0 17.334 28.839 43.24 48.579 61.702 67.041 81.742 94.714 99.452 104.791 119.493 130.209 141.714 156.284 168.147 181.458 195.409" y="0">MEDICINA INTEGRADA</tspan></text></svg>