<?xml version="1.0" encoding="UTF-8" standalone="no"?>
<svg
   xml:space="preserve"
   width="623.9"
   height="695.41"
   viewBox="0 0 623.904 695.413"
   version="1.1"
   id="svg57"
   sodipodi:docname="logo-inkscape.svg"
   inkscape:version="1.4.3 (0d15f75, 2025-12-25)"
   xmlns:inkscape="http://www.inkscape.org/namespaces/inkscape"
   xmlns:sodipodi="http://sodipodi.sourceforge.net/DTD/sodipodi-0.dtd"
   xmlns:xlink="http://www.w3.org/1999/xlink"
   xmlns="http://www.w3.org/2000/svg"
   xmlns:svg="http://www.w3.org/2000/svg"><sodipodi:namedview
     id="namedview57"
     pagecolor="#ffffff"
     bordercolor="#000000"
     borderopacity="0.25"
     inkscape:showpageshadow="2"
     inkscape:pageopacity="0.0"
     inkscape:pagecheckerboard="0"
     inkscape:deskcolor="#d1d1d1"
     showguides="true"
     inkscape:zoom="0.70710678"
     inkscape:cx="-24.04163"
     inkscape:cy="290.62089"
     inkscape:window-width="1920"
     inkscape:window-height="1009"
     inkscape:window-x="1912"
     inkscape:window-y="-8"
     inkscape:window-maximized="1"
     inkscape:current-layer="svg57"><sodipodi:guide
       position="949.01561,602.28951"
       orientation="0,-1"
       id="guide59"
       inkscape:locked="false" /><sodipodi:guide
       position="949.01561,377.23388"
       orientation="0,-1"
       id="guide60"
       inkscape:locked="false" /><sodipodi:guide
       position="958.11542,530.41228"
       orientation="1,0"
       id="guide61"
       inkscape:locked="false" /><sodipodi:guide
       position="1039.2095,485.91188"
       orientation="1,0"
       id="guide62"
       inkscape:locked="false" /><sodipodi:guide
       position="367.87465,295.02194"
       orientation="0,-1"
       id="guide72"
       inkscape:locked="false" /></sodipodi:namedview><defs
     id="defs35"><clipPath
       id="b"
       clipPathUnits="userSpaceOnUse"><path
         d="M452.11 527.55h100.54v-78.546H452.11z"
         id="path2" /></clipPath><clipPath
       id="c"
       clipPathUnits="userSpaceOnUse"><path
         d="M452.11 449.5c1.03-.434 2.659-.496 5.248-.496h1.207c4.395 0 8.619.191 12.735.161 3.93-.026 7.759.08 11.54.08 4.749 0 9.405-.092 14.069.04 27.627.783 51.295 21.328 55.049 47.765 1.544 10.87.459 21.248-2.787 30.424a94 94 0 0 1-3.695.076c-46.65 0-85.434-33.681-93.366-78.05"
         id="path3" /></clipPath><clipPath
       id="e"
       clipPathUnits="userSpaceOnUse"><path
         d="M354.6 660.97h236.41V504.92H354.6z"
         id="path4" /></clipPath><clipPath
       id="f"
       clipPathUnits="userSpaceOnUse"><path
         d="M519.05 658.15c-27.149 2.459-54.151 2.773-74.645 2.773-10.913 0-21.83.102-32.756 0-15.448-.146-34.47 0-50.162 0-6.841 0-6.884-.088-6.884-7.03l.008-124.29a152.6 152.6 0 0 1 64.95-24.689c-.002 23.346-.072 66.432-.072 83.293 0 6.946.018 7.012 7.279 7.012 11.544 0 32.905-.03 32.905-.03 14.263 0 29.434-.313 44.256-1.401 23.466-1.725 44.122-12.906 58.483-29.637 14.119 18.555 24.107 40.421 28.597 64.232-20.609 16.557-45.337 27.361-71.959 29.766"
         id="path5" /></clipPath><clipPath
       id="h"
       clipPathUnits="userSpaceOnUse"><path
         d="M451.8 421.49h96.093v-68.754H451.8z"
         id="path6" /></clipPath><clipPath
       id="i"
       clipPathUnits="userSpaceOnUse"><path
         d="M522.77 414.76c-.221.442-.429.867-.628 1.264-3.069 5.979-3.007 6.032-9.117 4.886-.439-.084-.867-.159-1.3-.239a89 89 0 0 0-8.928-1.15c-4.669-.358-9.692-1.219-15.803-1.219-4.562 0-9.156-.089-13.795 0-4.838.097-12.008 0-16.009 0-2.771 0-4.407-.021-5.385-.524 4.313-27.304 20.274-50.736 42.638-65.042 9.34.365 17.946.961 23.163 1.935 7.269 1.352 14.812 2.387 22.213 4.54 0 0 2.025.561 2.689.783 6.451 2.175 6.451 2.268 3.448 8.533-5.584 11.678-17.735 35.408-23.186 46.233"
         id="path7" /></clipPath><clipPath
       id="k"
       clipPathUnits="userSpaceOnUse"><path
         d="M357.32 660.97h292.02V432.59H357.32z"
         id="path8" /></clipPath><clipPath
       id="l"
       clipPathUnits="userSpaceOnUse"><path
         d="M519.05 658.15c-27.149 2.459-54.151 2.773-74.645 2.773-10.913 0-21.83.102-32.756 0-15.448-.146-34.47 0-50.162 0-1.978 0-3.167-.008-4.172-.187.05-60.7 23.68-115.85 62.68-156.72v.098c0 23.169-.291 67.023-.291 84.059 0 6.946-.092 7.028 7.169 7.028 11.545 0 32.851-.021 32.851-.021 14.263 0 29.407-.309 44.228-1.397 45.237-3.325 80.079-41.74 79.35-87.454-.403-25.434-11.221-49.208-29.73-65.533-.322-.287-.653-.566-.984-.849-.142-.119-.29-.238-.436-.366-2.119-1.859-3.343-2.935-3.815-3.996a230 230 0 0 1 37.117-3.003c16.189 0 31.984 1.688 47.223 4.892 10.616 20.89 16.474 44.042 16.652 67.697.588 77.802-57.866 146.43-130.28 152.98"
         id="path9" /></clipPath><clipPath
       id="n"
       clipPathUnits="userSpaceOnUse"><path
         d="M334.42 224.67h68.578V212H334.42z"
         id="path10" /></clipPath><clipPath
       id="o"
       clipPathUnits="userSpaceOnUse"><path
         d="M403 224.67c-56 0-68.58-12.67-68.58-12.67h68.578v12.67z"
         id="path11" /></clipPath><clipPath
       id="q"
       clipPathUnits="userSpaceOnUse"><path
         d="M480.26 224.67H617V212H480.26z"
         id="path12" /></clipPath><clipPath
       id="r"
       clipPathUnits="userSpaceOnUse"><path
         d="M617 224.67c-129 0-136.74-12.67-136.74-12.67H617z"
         id="path13" /></clipPath><clipPath
       id="t"
       clipPathUnits="userSpaceOnUse"><path
         d="M647.33 224.67H749V212H647.33z"
         id="path14" /></clipPath><clipPath
       id="u"
       clipPathUnits="userSpaceOnUse"><path
         d="M749 224.67c-97 0-101.67-12.67-101.67-12.67H749z"
         id="path15" /></clipPath><linearGradient
       id="d"
       gradientTransform="matrix(100.54,0,0,-100.54,452.11,488.27)"
       gradientUnits="userSpaceOnUse"
       x1="-1.443199"
       y1="-0.014066268"><stop
         offset="0"
         id="stop15" /><stop
         offset=".884"
         stop-color="#fff"
         id="stop16" /><stop
         offset="1"
         stop-color="#fff"
         id="stop17" /></linearGradient><linearGradient
       id="g"
       gradientTransform="matrix(236.41,0,0,-236.41,354.6,582.95)"
       gradientUnits="userSpaceOnUse"><stop
         offset="0"
         stop-color="#8cd7dd"
         id="stop18" /><stop
         offset=".116"
         stop-color="#8cd7dd"
         id="stop19" /><stop
         offset="1"
         stop-color="#fff"
         id="stop20" /></linearGradient><linearGradient
       id="j"
       gradientTransform="matrix(96.093,0,0,-96.093,451.8,387.12)"
       gradientUnits="userSpaceOnUse"><stop
         offset="0"
         id="stop21" /><stop
         offset=".884"
         stop-color="#fff"
         id="stop22" /><stop
         offset="1"
         stop-color="#fff"
         id="stop23" /></linearGradient><linearGradient
       id="m"
       gradientTransform="matrix(292.02,0,0,-292.02,357.32,546.78)"
       gradientUnits="userSpaceOnUse"><stop
         offset="0"
         stop-color="#8cd7dd"
         id="stop24" /><stop
         offset=".116"
         stop-color="#8cd7dd"
         id="stop25" /><stop
         offset="1"
         stop-color="#fff"
         id="stop26" /></linearGradient><linearGradient
       id="p"
       gradientTransform="matrix(68.578,0,0,-68.578,334.42,218.33)"
       gradientUnits="userSpaceOnUse"><stop
         offset="0"
         id="stop27" /><stop
         offset=".884"
         stop-color="#fff"
         id="stop28" /><stop
         offset="1"
         stop-color="#fff"
         id="stop29" /></linearGradient><linearGradient
       id="s"
       gradientTransform="matrix(136.74,0,0,-136.74,480.26,218.33)"
       gradientUnits="userSpaceOnUse"><stop
         offset="0"
         id="stop30" /><stop
         offset=".884"
         stop-color="#fff"
         id="stop31" /><stop
         offset="1"
         stop-color="#fff"
         id="stop32" /></linearGradient><linearGradient
       id="v"
       gradientTransform="matrix(101.67,0,0,-101.67,647.33,218.33)"
       gradientUnits="userSpaceOnUse"><stop
         offset="0"
         id="stop33" /><stop
         offset=".884"
         stop-color="#fff"
         id="stop34" /><stop
         offset="1"
         stop-color="#fff"
         id="stop35" /></linearGradient><linearGradient
       inkscape:collect="always"
       xlink:href="#m"
       id="linearGradient75"
       gradientUnits="userSpaceOnUse"
       gradientTransform="matrix(292.02,0,0,-292.02,357.32,546.78)" /></defs><path
     d="m 463.53272,89.460805 c -23.2398,-1.220854 -70.57034,3.662133 -77.37749,3.662133 -2.0571,0.41143 -54.08673,-1.206327 -96.44983,1.763683 -11.6635,0.8573 -96.74841,25.170599 -99.17251,110.760469 2.3971,84.86601 86.35566,109.82637 99.17056,110.76829 6.90395,0.46982 13.81119,0.8183 20.72083,1.07618 V 192.2349 c 0,-11.90852 1.69647,-21.87275 5.08988,-29.89277 3.39341,-8.02002 7.91667,-14.3376 13.57235,-18.9552 5.65568,-4.61759 11.87736,-7.89957 18.66418,-9.84381 6.78682,-1.94426 13.46102,-2.91604 20.02161,-2.91604 8.14419,0 18.21133,0.12221 30.20137,0.36524 12.21628,0 25.11019,0.36466 38.68384,1.09376 13.79561,0.72886 27.02641,1.81986 39.69161,3.27736 V 93.122938 c 0,-2.170625 -5.0699,-3.255181 -12.8164,-3.662133 z M 381.6845,180.57076 c -7.01304,0 -12.32968,2.06578 -15.94932,6.19731 -3.39341,3.88849 -5.08988,9.11208 -5.08988,15.67392 v 45.93389 l 99.42842,2.91603 v 42.65262 l -99.42842,2.91603 v 21.34389 c 8.50346,-0.002 17.00731,-0.0298 25.50993,-0.0254 9.0756,0 90.19389,8.6825 90.19389,0 v -137.6083 z"
     style="display:inline;fill:#b4bdc0;stroke-width:1.25"
     id="path67" /><path
     d="m 262.96457,129.2384 c -15.41376,1.7e-4 -30.74131,2.22913 -45.47686,6.61333 -14.76292,16.64236 -26.09267,39.33964 -26.95525,69.79536 2.9337,107.50224 96.63605,112.33321 119.89139,111.84447 v 81.90481 c -1.52929,3.39017 1.71531,-206.68881 0.11914,-206.68881 0,-11.90853 1.69647,-21.87275 5.08988,-29.89277 3.39341,-8.02002 7.91667,-14.33956 13.57235,-18.95715 0.0542,-0.0443 0.10779,-0.0888 0.16211,-0.13282 -20.7541,-9.53843 -43.43496,-14.48649 -66.40276,-14.48642 z m 117.1316,51.84604 c -6.1747,0.31367 -10.92029,2.36478 -14.24032,6.15433 -3.39341,3.88849 -5.09183,9.11404 -5.09183,15.67588 v 45.93389 l 54.28941,1.59181 c -5.22596,-25.67506 -17.27581,-49.5822 -34.95726,-69.35591 z m 36.99438,114.59643 -56.32653,1.65235 v 20.87123 c 8.46375,-0.003 16.92788,-0.0294 25.39078,-0.0254 9.07567,0 9.09967,-0.11248 9.09967,-8.79498 v 8.79498 h 17.5216 c 2.02576,-7.3822 3.4681,-14.90339 4.31448,-22.49819 z"
     style="fill:#a2aaad;stroke-width:0.500003;stroke-linecap:round;stroke-linejoin:round"
     id="path72"
     sodipodi:nodetypes="ccccccsssccccsccscccccccs" /><path
     fill="#b4bdc0"
     d="m -351.35726,264.96 h 1.50875 c 5.49375,0 10.7725,-0.23875 15.9175,-0.20125 4.91375,0.0325 9.7,-0.1 14.425,-0.1 5.93625,0 11.7575,0.11625 17.5875,-0.05 34.53375,-0.97875 64.11875,-26.66 68.81125,-59.70625 5.5325,-38.95375 -15.86875,-72.89625 -50.88625,-80.685 -14.995,-3.3325 -30.51,-3.47125 -45.515,-3.62 -6.5775,-0.0675 -21.41375,0.008 -22.31,0.008 -8.45625,0 -8.74,0.15125 -8.74,8.685 v 126.4 c 0,8.74375 0.525,9.2625 9.20125,9.2625"
     id="path35"
     style="stroke-width:1.25" /><path
     fill="#01a799"
     d="m -274.24476,3.5225 c -33.93625,-3.07375 -67.68875,-3.465 -93.3075,-3.465 -13.64125,0 -27.28625,-0.12875 -40.9425,0 -19.3125,0.18125 -43.09,0 -62.70375,0 -8.55125,0 -8.60625,0.10875 -8.60625,8.7875 0,19.52625 0.0162,200.7 0.0162,245.8 0,8.965 0.0937,9.06375 8.8375,9.06375 h 63.56 c 8.71625,0 8.7725,-0.0813 8.7725,-8.83125 0,-14.67875 0.0113,-58.77375 0.0113,-58.77375 0,-28.96125 -0.09,-83.8 -0.09,-105.095 0,-8.6825 0.0225,-8.79625 9.09875,-8.79625 14.43125,0 41.13125,0.02125 41.13125,0.02125 17.83,0 36.79375,0.38375 55.32,1.7425 56.54625,4.15625 100.11625,52.17375 99.20375,109.31625 -0.5025,31.7925 -14.01625,61.51 -37.1525,81.91625 -0.40375,0.35875 -0.8125,0.7075 -1.2275,1.06 -0.17625,0.14875 -0.35875,0.2975 -0.54125,0.4575 -6.28375,5.5125 -6.28375,5.5125 -2.32625,12.84125 0.1425,0.265 0.54125,1.0825 0.54125,1.0825 l 28.4025,56.60625 c 0,0 0.4375,0.94125 0.62,1.23375 4.60375,7.46625 4.71375,7.35 11.39125,2.58125 0.37625,-0.27125 1.5025,-1.1 1.5025,-1.1 l 0.8575,-0.63 c 49.9475,-36.38375 80.03,-94.185 80.48375,-154.6 0.7125,-97.2425 -72.355,-183.0375 -162.875,-191.2125"
     id="path37"
     style="stroke-width:1.25" /><path
     fill="#01a698"
     d="m -397.76976,382.9725 c 0,1.52125 -1.21375,2.75125 -2.71375,2.75125 h -77.3 c -1.49625,0 -2.71375,-1.23 -2.71375,-2.75125 v -77.77625 c 0,-1.52125 1.2175,-2.75375 2.71375,-2.75375 h 77.3 c 1.5,0 2.71375,1.2325 2.71375,2.75375 z"
     id="path38"
     style="stroke-width:1.25" /><path
     fill="#b4bdc0"
     d="m -269.59476,307.76 q -0.4125,-0.83125 -0.785,-1.58125 c -3.835,-7.4725 -3.75875,-7.53875 -11.39625,-6.10625 -0.5475,0.105 -1.0825,0.19875 -1.625,0.29875 a 111.25,111.25 0 0 1 -11.16,1.43625 c -5.83625,0.44875 -12.115,1.525 -19.7525,1.525 -5.70375,0 -11.4475,0.11125 -17.24375,0 -6.0475,-0.1225 -15.2325,0 -20.235,0 -8.38375,0 -8.76,0.0888 -8.76,8.76625 v 65.0475 c 0,8.79875 0.22125,8.86 8.84875,8.86 18.05125,0 59.565,-0.155 75.54375,-3.135 9.08625,-1.69125 18.57,-2.98375 27.8225,-5.675 0,0 2.55875,-0.7025 3.3875,-0.97875 8.06375,-2.71875 8.0775,-2.835 4.325,-10.6675 -6.98125,-14.59625 -22.15625,-44.26 -28.97,-57.79"
     id="path39"
     style="stroke-width:1.25" /><g
     clip-path="url(#e)"
     opacity="0.15"
     id="g41"
     transform="matrix(1.25,0,0,-1.25,-923.05726,826.21)"><g
       clip-path="url(#f)"
       id="g40"><path
         fill="url(#g)"
         d="m 519.05,658.15 c -27.149,2.459 -54.151,2.773 -74.645,2.773 -10.913,0 -21.83,0.102 -32.756,0 -15.448,-0.146 -34.47,0 -50.162,0 -6.841,0 -6.884,-0.088 -6.884,-7.03 l 0.008,-124.29 a 152.6,152.6 0 0 1 64.95,-24.689 c -0.002,23.346 -0.072,66.432 -0.072,83.293 0,6.946 0.018,7.012 7.279,7.012 11.544,0 32.905,-0.03 32.905,-0.03 14.263,0 29.434,-0.313 44.256,-1.401 23.466,-1.725 44.122,-12.906 58.483,-29.637 14.119,18.555 24.107,40.421 28.597,64.232 -20.609,16.557 -45.337,27.361 -71.959,29.766"
         id="path40"
         style="fill:url(#g)" /></g></g><g
     clip-path="url(#h)"
     opacity="0.1"
     id="g43"
     transform="matrix(1.25,0,0,-1.25,-923.05726,826.21)"><g
       clip-path="url(#i)"
       id="g42"><path
         fill="url(#j)"
         d="m 522.77,414.76 c -0.221,0.442 -0.429,0.867 -0.628,1.264 -3.069,5.979 -3.007,6.032 -9.117,4.886 -0.439,-0.084 -0.867,-0.159 -1.3,-0.239 a 89,89 0 0 0 -8.928,-1.15 c -4.669,-0.358 -9.692,-1.219 -15.803,-1.219 -4.562,0 -9.156,-0.089 -13.795,0 -4.838,0.097 -12.008,0 -16.009,0 -2.771,0 -4.407,-0.021 -5.385,-0.524 4.313,-27.304 20.274,-50.736 42.638,-65.042 9.34,0.365 17.946,0.961 23.163,1.935 7.269,1.352 14.812,2.387 22.213,4.54 0,0 2.025,0.561 2.689,0.783 6.451,2.175 6.451,2.268 3.448,8.533 -5.584,11.678 -17.735,35.408 -23.186,46.233"
         id="path41"
         style="fill:url(#j)" /></g></g><g
     clip-path="url(#k)"
     opacity="0.15"
     id="g45"
     transform="matrix(1.25,0,0,-1.25,-923.05726,826.21)"><g
       clip-path="url(#l)"
       id="g44"><path
         fill="url(#m)"
         d="m 519.05,658.15 c -27.149,2.459 -54.151,2.773 -74.645,2.773 -10.913,0 -21.83,0.102 -32.756,0 -15.448,-0.146 -34.47,0 -50.162,0 -1.978,0 -3.167,-0.008 -4.172,-0.187 0.05,-60.7 23.68,-115.85 62.68,-156.72 v 0.098 c 0,23.169 -0.291,67.023 -0.291,84.059 0,6.946 -0.092,7.028 7.169,7.028 11.545,0 32.851,-0.021 32.851,-0.021 14.263,0 29.407,-0.309 44.228,-1.397 45.237,-3.325 80.079,-41.74 79.35,-87.454 -0.403,-25.434 -11.221,-49.208 -29.73,-65.533 -0.322,-0.287 -0.653,-0.566 -0.984,-0.849 -0.142,-0.119 -0.29,-0.238 -0.436,-0.366 -2.119,-1.859 -3.343,-2.935 -3.815,-3.996 a 230,230 0 0 1 37.117,-3.003 c 16.189,0 31.984,1.688 47.223,4.892 10.616,20.89 16.474,44.042 16.652,67.697 0.588,77.802 -57.866,146.43 -130.28,152.98"
         id="path43"
         style="fill:url(#m)" /></g></g><path
     fill="#24b3a7"
     d="m 63.93,459.26 c -4.7625,-6.19 -12.61875,-9.6425 -20.35625,-9.6425 -18.92875,0 -31.42875,15.11875 -31.42875,34.285 0,17.7375 11.78625,32.85625 31.42875,32.85625 9.6425,0 17.0225,-4.28625 22.0225,-11.31 l 9.6425,7.2625 c -2.5,3.45125 -12.61875,14.76125 -31.905,14.76125 -26.78375,0 -43.33125,-22.38 -43.33125,-43.57 0,-26.18875 17.97625,-44.9975 43.9275,-44.9975 11.07125,0 22.7375,4.16625 29.52375,13.09375 z m 51.775,9.6375 h 10.71375 v 56.42625 H 115.705 Z m 9.88125,-27.85625 h 15.2375 l -17.7375,17.1425 H 113.205 Z m 17.85625,27.85625 h 10.71375 v 8.69 h 0.23875 c 2.7375,-5.9525 9.88,-10.12 18.57,-10.12 10.9525,0 20.47625,6.54875 20.47625,21.5475 v 36.30875 h -10.715 v -33.3325 c 0,-10.595 -6.07125,-14.52375 -12.85625,-14.52375 -8.92875,0 -15.71375,5.715 -15.71375,18.80875 v 29.0475 H 143.4425 Z m 67.025,0 h 10.71375 v 56.42625 H 210.4675 Z m 5.35625,-28.09375 c 4.28625,0 7.85625,3.57125 7.85625,7.85625 0,4.285 -3.57,7.8575 -7.85625,7.8575 -4.285,0 -7.85625,-3.57125 -7.85625,-7.8575 0,-4.28625 3.57125,-7.85625 7.85625,-7.85625 M 278.555,483.8975 c -3.92875,-4.16625 -8.095,-6.30875 -14.04625,-6.30875 -11.66625,0 -17.62,9.405 -17.62,19.99875 0,10.59375 7.14375,19.16625 18.21375,19.16625 5.9525,0 10.11875,-2.14375 13.69,-6.31 l 7.62,7.61875 c -5.595,6.19125 -13.21375,8.69125 -21.4275,8.69125 -17.38125,0 -29.52375,-12.02375 -29.52375,-29.40375 0,-17.38 11.905,-29.76125 29.52375,-29.76125 8.21375,0 16.07,2.85625 21.665,8.92875 z m 47.5,14.2875 c -10.12,0 -22.49875,1.7875 -22.49875,10.83375 0,6.42875 4.76125,9.16625 12.1425,9.16625 11.90375,0 16.07,-8.80875 16.07,-16.42875 V 498.185 Z m -30.23625,-22.37875 c 5.95125,-5.595 14.5225,-8.33375 22.37875,-8.33375 16.66625,0 23.57,9.0475 23.57,18.81 V 515.09 c 0,3.92875 0.12,7.26125 0.4775,10.2375 h -9.52375 c -0.23729,-2.85093 -0.35656,-5.71046 -0.3575,-8.57125 h -0.2375 c -4.7625,7.26125 -11.19125,10 -19.76125,10 -10.47625,0 -19.5225,-5.95125 -19.5225,-16.90375 0,-14.52375 13.9275,-19.52375 31.06875,-19.52375 h 7.8575 v -2.38 c 0,-5.83375 -4.285,-11.905 -13.45125,-11.905 -8.215,0 -12.1425,3.4525 -16.07125,6.42875 z M 393.205,441.0475 h 52.97375 v 10.71375 H 404.6325 v 26.4275 h 38.69 v 10.71375 h -38.69 V 525.33 H 393.205 Z m 92.9625,0 h 15.23625 L 483.6675,458.19 h -9.88 z m 3.09625,57.14 c -10.12,0 -22.5,1.7875 -22.5,10.83375 0,6.4275 4.76125,9.16625 12.14125,9.16625 11.905,0 16.07125,-8.80875 16.07125,-16.42875 V 498.1875 Z M 459.025,475.80875 c 5.9525,-5.595 14.5225,-8.33375 22.38,-8.33375 16.66625,0 23.57125,9.0475 23.57125,18.80875 v 28.80875 c 0,3.92875 0.12,7.26125 0.47625,10.2375 h -9.52375 c -0.23873,-2.85084 -0.358,-5.71043 -0.3575,-8.57125 h -0.2375 c -4.7625,7.26125 -11.19,10 -19.7625,10 -10.47375,0 -19.5225,-5.95125 -19.5225,-16.90375 0,-14.52375 13.92875,-19.52375 31.07125,-19.52375 h 7.85625 V 487.95 c 0,-5.83375 -4.285,-11.90375 -13.4525,-11.90375 -8.2125,0 -12.14125,3.4525 -16.07,6.42875 z m 101.905,8.08875 c -3.93,-4.16625 -8.09625,-6.30875 -14.0475,-6.30875 -11.66625,0 -17.61875,9.405 -17.61875,19.99875 0,10.59375 7.1425,19.16625 18.21375,19.16625 5.9525,0 10.11875,-2.14375 13.68875,-6.31 l 7.62,7.61875 c -5.595,6.19125 -13.21375,8.69125 -21.4275,8.69125 -17.38125,0 -29.52375,-12.02375 -29.52375,-29.40375 0,-17.38 11.90625,-29.76125 29.52375,-29.76125 8.21375,0 16.07,2.85625 21.66625,8.92875 z m 17.8625,-15 h 10.7125 v 56.42625 h -10.7125 z m 5.35625,-28.09375 c 4.28625,0 7.85625,3.57125 7.85625,7.85625 0,4.285 -3.57,7.8575 -7.85625,7.8575 -4.28625,0 -7.85625,-3.57125 -7.85625,-7.8575 0,-4.28625 3.57,-7.85625 7.85625,-7.85625"
     id="path46"
     style="stroke-width:1.25"
     sodipodi:nodetypes="csssccsssccccccccccccccccssccssscccccccccsssccsssccsssccsssscscsssccccssscssccccccccccccccccccsssscscsssccccssscsscccsssccsssccccccccsssc" /><path
     fill="#b4bdc0"
     d="M 623.89136,546.21 H 0 c 19.77966,2.5 34.558585,8.75 43.574235,15 H 623.904 v -15 z"
     id="path49"
     style="stroke-width:2.2948"
     sodipodi:nodetypes="cccccc" /><g
     clip-path="url(#q)"
     opacity="0.1"
     id="g53"
     transform="matrix(4.2436078,0,0,-1.25,-1994.4314,826.21)"><g
       clip-path="url(#r)"
       id="g52"><path
         fill="url(#s)"
         d="M 617,224.67 C 488,224.67 480.26,212 480.26,212 H 617 Z"
         id="path51"
         style="fill:url(#s)" /></g></g><path
     fill="#24b3a7"
     d="M 87.23,524.96 H 98.48 V 441.21 H 87.23 Z m 520,0 h 11.25 v -83.75 h -11.25 z"
     id="path55"
     style="stroke-width:1.25" /><path
     d="m 364.10779,10.968118 c -25.61856,1.6e-5 -59.3717,0.39118 -93.30724,3.464866 l 0.0234,0.0059 C 180.30825,22.613383 107.24426,108.40037 107.94991,205.63733 v 0.002 0.002 l -0.002,0.002 v 0.002 0.002 0.002 0.002 c -0.15989,21.82127 5.16256,186.79093 202.29916,194.73984 l 0.17678,-82.89914 c -6.90964,-0.25788 -13.81688,-0.60636 -20.72083,-1.07618 -12.81486,-0.94192 -96.77344,-25.90228 -99.17056,-110.76829 2.4241,-85.58987 87.50897,-109.903178 99.17251,-110.760469 32.0948,-2.250114 64.29794,-1.759532 96.44983,-1.763683 11.92457,0.02444 90.19394,0 90.19394,0 v 42.240502 c 0,-54.222788 0.01,-105.704947 0.01,-115.608157 0,-8.67875 -0.0539,-8.787165 -8.60552,-8.787165 -19.6137,0 -43.39102,0.18125 -62.70352,0 -13.6556,-0.128744 -27.29912,-1.3e-5 -40.93972,0 z M 476.34874,215.88349 v 102.29557 h -81.09427 v -8.79498 c 0,8.6825 -0.024,8.79498 -9.09967,8.79498 -8.50261,-0.004 -17.00646,0.0231 -25.50992,0.0254 v 82.12748 c 1.16991,0.002 2.32443,0.002 3.46291,0.002 13.6413,0 27.28742,0.12875 40.94362,0 19.3125,-0.18125 43.08972,0 62.70352,0 8.5512,0 8.60553,-0.10842 8.60553,-8.78717 0,-13.61348 -0.009,-105.79806 -0.0117,-175.66322 z"
     style="fill:#01a799;stroke-width:1.25"
     id="path71"
     sodipodi:nodetypes="cccsccccccsccccccccssccccccccccscsssc" /><text
     xml:space="preserve"
     style="font-weight:bold;font-size:351.718px;font-family:Exo;-inkscape-font-specification:'Exo Bold';writing-mode:lr-tb;direction:ltr;fill:#ffffff;stroke-width:10.9911;stroke-linecap:round;stroke-linejoin:round"
     x="643.09045"
     y="-624.10394"
     id="text58"
     transform="scale(0.96480945,1.0364741)"><tspan
       sodipodi:role="line"
       id="tspan58"
       style="fill:#ffffff;stroke-width:10.9911"
       x="643.09045"
       y="-624.10394">F</tspan></text><path
     id="path58"
     style="fill:#01a799;fill-opacity:1;stroke-width:1.25"
     d="m 149.59061,-606.34003 c -25.61875,0 -59.372936,0.39111 -93.309186,3.46486 l 0.0234,0.006 c -90.51582,8.17463 -163.579734,93.96153 -162.874084,191.19849 -4e-5,0.004 -0.002,0.009 -0.002,0.0137 -0.7125,97.2425 72.356044,183.03715 162.876044,191.21215 l -0.0234,0.006 c 33.9363,3.07375 67.688536,3.46487 93.307236,3.46487 13.6413,0 27.28742,0.12875 40.94362,0 19.3125,-0.18125 43.08972,0 62.70352,0 8.5512,0 8.6056,-0.10842 8.6056,-8.78717 0,-14.03234 -0.01,-111.54549 -0.012,-182.04608 0,-70.87907 0.012,-175.19454 0.012,-189.74535 0,-8.67875 -0.054,-8.78716 -8.6056,-8.78716 -19.6137,0 -43.39102,0.18125 -62.70352,0 -13.65625,-0.12875 -27.30042,0 -40.94167,0 z m 22.04506,82.15482 c 9.07625,0 9.09967,0.11248 9.09967,8.79498 l -2e-4,207.46616 c 0,8.6825 -0.024,8.79498 -9.09967,8.79498 -32.16248,-0.0167 -64.34269,0.42144 -96.451776,-1.76365 -12.81486,-0.94192 -96.77344,-25.90228 -99.17056,-110.76829 2.4241,-85.58987 87.50897,-109.90318 99.17251,-110.76047 32.094796,-2.25011 64.297936,-1.75953 96.449826,-1.76368 z"
     sodipodi:nodetypes="sccscccscsscsscssscsccccss" /><path
     d="M 670.80375,-214.14523 V 10.910896 h 81.0942 V -214.14523 Z"
     style="fill:#4d4d4d;stroke-width:0.500003;stroke-linecap:round;stroke-linejoin:round"
     id="path62"
     inkscape:transform-center-x="17.500111"
     inkscape:transform-center-y="25.500162" /><path
     d="m 1225.4983,-24.625824 c -6.5606,0 -13.2348,0.97178 -20.0216,2.91604 -6.7868,1.94424 -13.0085,5.22622 -18.6642,9.84381 -5.6557,4.6175999 -10.1789,10.93517986 -13.5724,18.9551999 -3.3934,8.0200201 -5.0898,17.9842501 -5.0898,29.8927701 V 245.13957 h 50.221 V 141.60766 l 99.4284,-2.91603 V 96.039006 l -99.4284,-2.91603 v -45.93389 c 0,-6.56184 1.6965,-11.78543 5.0899,-15.67392 3.6196,-4.13153 8.9362,-6.19731 15.9493,-6.19731 h 94.6764 v -45.20537 c -12.6688,-1.45818 -25.9035,-2.55022 -39.7034,-3.27931 -13.5737,-0.7291 -26.4676,-1.09376 -38.6838,-1.09376 -11.9901,-0.24303 -22.0572,-0.36524 -30.2014,-0.36524 z"
     style="font-weight:bold;font-size:351.718px;font-family:Exo;-inkscape-font-specification:'Exo Bold';fill:#ffffff;stroke-width:10.9911;stroke-linecap:round;stroke-linejoin:round"
     id="path66" /><g
     clip-path="url(#k)"
     opacity="0.15"
     id="g75"
     transform="matrix(-1.25,0,0,-1.25,919.74605,837.12466)"><g
       clip-path="url(#l)"
       id="g74"><path
         fill="url(#m)"
         d="m 519.05,658.15 c -54.40129,0.69548 -108.80259,1.39097 -163.20388,2.08645 l -1.12858,-65.03507 c 61.41929,0.70064 275.17483,-49.14381 194.90933,-157.91761 22.03002,-3.30415 44.39594,-6.69601 66.59738,-2.64382 20.68609,-2.93004 23.76509,19.05416 28.43141,34.22646 15.63906,59.89873 -8.80952,127.59623 -59.09568,163.67419 -19.40328,14.16174 -42.49145,23.56528 -66.51098,25.61042"
         id="path74"
         style="fill:url(#linearGradient75);stroke:none;stroke-width:0;stroke-dasharray:none;stroke-opacity:1"
         sodipodi:nodetypes="cccccccc" /></g></g></svg>
